# xmcd CD database file
#
# Track frame offsets:
#	183
#	38733
#	84408
#	125208
#	169608
#	203695
#	260958
#	304420
#
# Disc length: 4753 seconds
#
# Revision: 0
# Processed by: cddbd v1.4PL0 Copyright (c) Steve Scherf et al.
# Submitted via: CDex 1.50
#
DISCID=6f128f08
DTITLE=Phil Woods and Space Jazz Trio - Live at the Corridonia Festival
DYEAR=1991
DGENRE=Jazz
TTITLE0=New Lands
TTITLE1=Quill
TTITLE2=Chet
TTITLE3=Hindsight
TTITLE4=Phil's Mood
TTITLE5=Song for Sisyphus
TTITLE6=Lover Man
TTITLE7=Anthropology
EXTD=YEAR: 1991
EXTT0=
EXTT1=
EXTT2=
EXTT3=
EXTT4=
EXTT5=
EXTT6=
EXTT7=
PLAYORDER=
